<?xml version="1.0" encoding="utf-8"?>
<!-- Generator: Adobe Illustrator 16.0.4, SVG Export Plug-In . SVG Version: 6.00 Build 0)  -->
<!DOCTYPE svg PUBLIC "-//W3C//DTD SVG 1.1//EN" "http://www.w3.org/Graphics/SVG/1.1/DTD/svg11.dtd">
<svg version="1.1" xmlns="http://www.w3.org/2000/svg" xmlns:xlink="http://www.w3.org/1999/xlink" x="0px" y="0px" width="264px"
	 height="264px" viewBox="0 0 264 264" enable-background="new 0 0 264 264" xml:space="preserve">
<g id="monitor" display="none">
	<path display="inline" fill="#292929" d="M72,216h120v24H72V216z"/>
	<path display="inline" fill="#121212" d="M192,240v6H72v-6"/>
	<path display="inline" fill="#0D0D0D" d="M120,120h24v108h-24V120z"/>
	<g id="screen" display="inline">
		<path fill="#121212" d="M24,48h216v126H24V48z"/>
		<path d="M30,54h204v114H30V54z"/>
	</g>
</g>
<g id="keyboard">
	<g id="src" display="none">
		<g display="inline">
			<rect x="24" y="96" fill="#231F20" width="216" height="78"/>
		</g>
		<g>
			<g display="inline">
				<g>
					<rect x="223" y="155" fill="none" stroke="#FFFFFF" stroke-miterlimit="10" width="14" height="14"/>
				</g>
				<g>
					<rect x="209" y="155" fill="none" stroke="#FFFFFF" stroke-miterlimit="10" width="14" height="14"/>
				</g>
				<g>
					<rect x="195" y="155" fill="none" stroke="#FFFFFF" stroke-miterlimit="10" width="14" height="14"/>
				</g>
				<g>
					<rect x="181" y="155" fill="none" stroke="#FFFFFF" stroke-miterlimit="10" width="14" height="14"/>
				</g>
				<g>
					<rect x="167" y="155" fill="none" stroke="#FFFFFF" stroke-miterlimit="10" width="14" height="14"/>
				</g>
				<g>
					<rect x="153" y="155" fill="none" stroke="#FFFFFF" stroke-miterlimit="10" width="14" height="14"/>
				</g>
				<g>
					<rect x="139" y="155" fill="none" stroke="#FFFFFF" stroke-miterlimit="10" width="14" height="14"/>
				</g>
				<g>
					<rect x="125" y="155" fill="none" stroke="#FFFFFF" stroke-miterlimit="10" width="14" height="14"/>
				</g>
				<g>
					<rect x="111" y="155" fill="none" stroke="#FFFFFF" stroke-miterlimit="10" width="14" height="14"/>
				</g>
				<g>
					<rect x="97" y="155" fill="none" stroke="#FFFFFF" stroke-miterlimit="10" width="14" height="14"/>
				</g>
				<g>
					<rect x="83" y="155" fill="none" stroke="#FFFFFF" stroke-miterlimit="10" width="14" height="14"/>
				</g>
				<g>
					<rect x="69" y="155" fill="none" stroke="#FFFFFF" stroke-miterlimit="10" width="14" height="14"/>
				</g>
				<g>
					<rect x="55" y="155" fill="none" stroke="#FFFFFF" stroke-miterlimit="10" width="14" height="14"/>
				</g>
				<g>
					<rect x="41" y="155" fill="none" stroke="#FFFFFF" stroke-miterlimit="10" width="14" height="14"/>
				</g>
				<g>
					<rect x="27" y="155" fill="none" stroke="#FFFFFF" stroke-miterlimit="10" width="14" height="14"/>
				</g>
			</g>
			<g display="inline">
				<g>
					<rect x="223" y="141" fill="none" stroke="#FFFFFF" stroke-miterlimit="10" width="14" height="14"/>
				</g>
				<g>
					<rect x="209" y="141" fill="none" stroke="#FFFFFF" stroke-miterlimit="10" width="14" height="14"/>
				</g>
				<g>
					<rect x="195" y="141" fill="none" stroke="#FFFFFF" stroke-miterlimit="10" width="14" height="14"/>
				</g>
				<g>
					<rect x="181" y="141" fill="none" stroke="#FFFFFF" stroke-miterlimit="10" width="14" height="14"/>
				</g>
				<g>
					<rect x="167" y="141" fill="none" stroke="#FFFFFF" stroke-miterlimit="10" width="14" height="14"/>
				</g>
				<g>
					<rect x="153" y="141" fill="none" stroke="#FFFFFF" stroke-miterlimit="10" width="14" height="14"/>
				</g>
				<g>
					<rect x="139" y="141" fill="none" stroke="#FFFFFF" stroke-miterlimit="10" width="14" height="14"/>
				</g>
				<g>
					<rect x="125" y="141" fill="none" stroke="#FFFFFF" stroke-miterlimit="10" width="14" height="14"/>
				</g>
				<g>
					<rect x="111" y="141" fill="none" stroke="#FFFFFF" stroke-miterlimit="10" width="14" height="14"/>
				</g>
				<g>
					<rect x="97" y="141" fill="none" stroke="#FFFFFF" stroke-miterlimit="10" width="14" height="14"/>
				</g>
				<g>
					<rect x="83" y="141" fill="none" stroke="#FFFFFF" stroke-miterlimit="10" width="14" height="14"/>
				</g>
				<g>
					<rect x="69" y="141" fill="none" stroke="#FFFFFF" stroke-miterlimit="10" width="14" height="14"/>
				</g>
				<g>
					<rect x="55" y="141" fill="none" stroke="#FFFFFF" stroke-miterlimit="10" width="14" height="14"/>
				</g>
				<g>
					<rect x="41" y="141" fill="none" stroke="#FFFFFF" stroke-miterlimit="10" width="14" height="14"/>
				</g>
				<g>
					<rect x="27" y="141" fill="none" stroke="#FFFFFF" stroke-miterlimit="10" width="14" height="14"/>
				</g>
			</g>
			<g display="inline">
				<g>
					<rect x="223" y="127" fill="none" stroke="#FFFFFF" stroke-miterlimit="10" width="14" height="14"/>
				</g>
				<g>
					<rect x="209" y="127" fill="none" stroke="#FFFFFF" stroke-miterlimit="10" width="14" height="14"/>
				</g>
				<g>
					<rect x="195" y="127" fill="none" stroke="#FFFFFF" stroke-miterlimit="10" width="14" height="14"/>
				</g>
				<g>
					<rect x="181" y="127" fill="none" stroke="#FFFFFF" stroke-miterlimit="10" width="14" height="14"/>
				</g>
				<g>
					<rect x="167" y="127" fill="none" stroke="#FFFFFF" stroke-miterlimit="10" width="14" height="14"/>
				</g>
				<g>
					<rect x="153" y="127" fill="none" stroke="#FFFFFF" stroke-miterlimit="10" width="14" height="14"/>
				</g>
				<g>
					<rect x="139" y="127" fill="none" stroke="#FFFFFF" stroke-miterlimit="10" width="14" height="14"/>
				</g>
				<g>
					<rect x="125" y="127" fill="none" stroke="#FFFFFF" stroke-miterlimit="10" width="14" height="14"/>
				</g>
				<g>
					<rect x="111" y="127" fill="none" stroke="#FFFFFF" stroke-miterlimit="10" width="14" height="14"/>
				</g>
				<g>
					<rect x="97" y="127" fill="none" stroke="#FFFFFF" stroke-miterlimit="10" width="14" height="14"/>
				</g>
				<g>
					<rect x="83" y="127" fill="none" stroke="#FFFFFF" stroke-miterlimit="10" width="14" height="14"/>
				</g>
				<g>
					<rect x="69" y="127" fill="none" stroke="#FFFFFF" stroke-miterlimit="10" width="14" height="14"/>
				</g>
				<g>
					<rect x="55" y="127" fill="none" stroke="#FFFFFF" stroke-miterlimit="10" width="14" height="14"/>
				</g>
				<g>
					<rect x="41" y="127" fill="none" stroke="#FFFFFF" stroke-miterlimit="10" width="14" height="14"/>
				</g>
				<g>
					<rect x="27" y="127" fill="none" stroke="#FFFFFF" stroke-miterlimit="10" width="14" height="14"/>
				</g>
			</g>
			<g display="inline">
				<g>
					<rect x="223" y="113" fill="none" stroke="#FFFFFF" stroke-miterlimit="10" width="14" height="14"/>
				</g>
				<g>
					<rect x="209" y="113" fill="none" stroke="#FFFFFF" stroke-miterlimit="10" width="14" height="14"/>
				</g>
				<g>
					<rect x="195" y="113" fill="none" stroke="#FFFFFF" stroke-miterlimit="10" width="14" height="14"/>
				</g>
				<g>
					<rect x="181" y="113" fill="none" stroke="#FFFFFF" stroke-miterlimit="10" width="14" height="14"/>
				</g>
				<g>
					<rect x="167" y="113" fill="none" stroke="#FFFFFF" stroke-miterlimit="10" width="14" height="14"/>
				</g>
				<g>
					<rect x="153" y="113" fill="none" stroke="#FFFFFF" stroke-miterlimit="10" width="14" height="14"/>
				</g>
				<g>
					<rect x="139" y="113" fill="none" stroke="#FFFFFF" stroke-miterlimit="10" width="14" height="14"/>
				</g>
				<g>
					<rect x="125" y="113" fill="none" stroke="#FFFFFF" stroke-miterlimit="10" width="14" height="14"/>
				</g>
				<g>
					<rect x="111" y="113" fill="none" stroke="#FFFFFF" stroke-miterlimit="10" width="14" height="14"/>
				</g>
				<g>
					<rect x="97" y="113" fill="none" stroke="#FFFFFF" stroke-miterlimit="10" width="14" height="14"/>
				</g>
				<g>
					<rect x="83" y="113" fill="none" stroke="#FFFFFF" stroke-miterlimit="10" width="14" height="14"/>
				</g>
				<g>
					<rect x="69" y="113" fill="none" stroke="#FFFFFF" stroke-miterlimit="10" width="14" height="14"/>
				</g>
				<g>
					<rect x="55" y="113" fill="none" stroke="#FFFFFF" stroke-miterlimit="10" width="14" height="14"/>
				</g>
				<g>
					<rect x="41" y="113" fill="none" stroke="#FFFFFF" stroke-miterlimit="10" width="14" height="14"/>
				</g>
				<g>
					<rect x="27" y="113" fill="none" stroke="#FFFFFF" stroke-miterlimit="10" width="14" height="14"/>
				</g>
			</g>
			<g display="inline">
				<g>
					<rect x="223" y="99" fill="none" stroke="#FFFFFF" stroke-miterlimit="10" width="14" height="14"/>
				</g>
				<g>
					<rect x="209" y="99" fill="none" stroke="#FFFFFF" stroke-miterlimit="10" width="14" height="14"/>
				</g>
				<g>
					<rect x="195" y="99" fill="none" stroke="#FFFFFF" stroke-miterlimit="10" width="14" height="14"/>
				</g>
				<g>
					<rect x="181" y="99" fill="none" stroke="#FFFFFF" stroke-miterlimit="10" width="14" height="14"/>
				</g>
				<g>
					<rect x="167" y="99" fill="none" stroke="#FFFFFF" stroke-miterlimit="10" width="14" height="14"/>
				</g>
				<g>
					<rect x="153" y="99" fill="none" stroke="#FFFFFF" stroke-miterlimit="10" width="14" height="14"/>
				</g>
				<g>
					<rect x="139" y="99" fill="none" stroke="#FFFFFF" stroke-miterlimit="10" width="14" height="14"/>
				</g>
				<g>
					<rect x="125" y="99" fill="none" stroke="#FFFFFF" stroke-miterlimit="10" width="14" height="14"/>
				</g>
				<g>
					<rect x="111" y="99" fill="none" stroke="#FFFFFF" stroke-miterlimit="10" width="14" height="14"/>
				</g>
				<g>
					<rect x="97" y="99" fill="none" stroke="#FFFFFF" stroke-miterlimit="10" width="14" height="14"/>
				</g>
				<g>
					<rect x="83" y="99" fill="none" stroke="#FFFFFF" stroke-miterlimit="10" width="14" height="14"/>
				</g>
				<g>
					<rect x="69" y="99" fill="none" stroke="#FFFFFF" stroke-miterlimit="10" width="14" height="14"/>
				</g>
				<g>
					<rect x="55" y="99" fill="none" stroke="#FFFFFF" stroke-miterlimit="10" width="14" height="14"/>
				</g>
				<g>
					<rect x="41" y="99" fill="none" stroke="#FFFFFF" stroke-miterlimit="10" width="14" height="14"/>
				</g>
				<g>
					<rect x="27" y="99" fill="none" stroke="#FFFFFF" stroke-miterlimit="10" width="14" height="14"/>
				</g>
			</g>
		</g>
		<g display="inline">
			<rect x="44.5" y="155" fill="none" stroke="#FFFFFF" stroke-miterlimit="10" width="17.5" height="14"/>
			<rect x="27" y="155" fill="none" stroke="#FFFFFF" stroke-miterlimit="10" width="17.5" height="14"/>
			<rect x="198.5" y="141" fill="none" stroke="#FFFFFF" stroke-miterlimit="10" width="38.5" height="14"/>
			<rect x="184.5" y="141" fill="none" stroke="#FFFFFF" stroke-miterlimit="10" width="14" height="14"/>
			<rect x="170.5" y="141" fill="none" stroke="#FFFFFF" stroke-miterlimit="10" width="14" height="14"/>
			<rect x="156.5" y="141" fill="none" stroke="#FFFFFF" stroke-miterlimit="10" width="14" height="14"/>
			<rect x="142.5" y="141" fill="none" stroke="#FFFFFF" stroke-miterlimit="10" width="14" height="14"/>
			<rect x="128.5" y="141" fill="none" stroke="#FFFFFF" stroke-miterlimit="10" width="14" height="14"/>
			<rect x="114.5" y="141" fill="none" stroke="#FFFFFF" stroke-miterlimit="10" width="14" height="14"/>
			<rect x="100.5" y="141" fill="none" stroke="#FFFFFF" stroke-miterlimit="10" width="14" height="14"/>
			<rect x="86.5" y="141" fill="none" stroke="#FFFFFF" stroke-miterlimit="10" width="14" height="14"/>
			<rect x="72.5" y="141" fill="none" stroke="#FFFFFF" stroke-miterlimit="10" width="14" height="14"/>
			<rect x="58.5" y="141" fill="none" stroke="#FFFFFF" stroke-miterlimit="10" width="14" height="14"/>
			<rect x="27" y="141" fill="none" stroke="#FFFFFF" stroke-miterlimit="10" width="31.5" height="14"/>
			<rect x="205.5" y="127" fill="none" stroke="#FFFFFF" stroke-miterlimit="10" width="31.5" height="14"/>
			<rect x="191.5" y="127" fill="none" stroke="#FFFFFF" stroke-miterlimit="10" width="14" height="14"/>
			<rect x="177.5" y="127" fill="none" stroke="#FFFFFF" stroke-miterlimit="10" width="14" height="14"/>
			<rect x="163.5" y="127" fill="none" stroke="#FFFFFF" stroke-miterlimit="10" width="14" height="14"/>
			<rect x="149.5" y="127" fill="none" stroke="#FFFFFF" stroke-miterlimit="10" width="14" height="14"/>
			<rect x="135.5" y="127" fill="none" stroke="#FFFFFF" stroke-miterlimit="10" width="14" height="14"/>
			<rect x="121.5" y="127" fill="none" stroke="#FFFFFF" stroke-miterlimit="10" width="14" height="14"/>
			<rect x="107.5" y="127" fill="none" stroke="#FFFFFF" stroke-miterlimit="10" width="14" height="14"/>
			<rect x="93.5" y="127" fill="none" stroke="#FFFFFF" stroke-miterlimit="10" width="14" height="14"/>
			<rect x="79.5" y="127" fill="none" stroke="#FFFFFF" stroke-miterlimit="10" width="14" height="14"/>
			<rect x="65.5" y="127" fill="none" stroke="#FFFFFF" stroke-miterlimit="10" width="14" height="14"/>
			<rect x="51.5" y="127" fill="none" stroke="#FFFFFF" stroke-miterlimit="10" width="14" height="14"/>
			<rect x="27" y="127" fill="none" stroke="#FFFFFF" stroke-miterlimit="10" width="24.5" height="14"/>
			<rect x="216" y="113" fill="none" stroke="#FFFFFF" stroke-miterlimit="10" width="21" height="14"/>
			<rect x="202" y="113" fill="none" stroke="#FFFFFF" stroke-miterlimit="10" width="14" height="14"/>
			<rect x="188" y="113" fill="none" stroke="#FFFFFF" stroke-miterlimit="10" width="14" height="14"/>
			<rect x="174" y="113" fill="none" stroke="#FFFFFF" stroke-miterlimit="10" width="14" height="14"/>
			<rect x="160" y="113" fill="none" stroke="#FFFFFF" stroke-miterlimit="10" width="14" height="14"/>
			<rect x="146" y="113" fill="none" stroke="#FFFFFF" stroke-miterlimit="10" width="14" height="14"/>
			<rect x="132" y="113" fill="none" stroke="#FFFFFF" stroke-miterlimit="10" width="14" height="14"/>
			<rect x="118" y="113" fill="none" stroke="#FFFFFF" stroke-miterlimit="10" width="14" height="14"/>
			<rect x="104" y="113" fill="none" stroke="#FFFFFF" stroke-miterlimit="10" width="14" height="14"/>
			<rect x="90" y="113" fill="none" stroke="#FFFFFF" stroke-miterlimit="10" width="14" height="14"/>
			<rect x="76" y="113" fill="none" stroke="#FFFFFF" stroke-miterlimit="10" width="14" height="14"/>
			<rect x="62" y="113" fill="none" stroke="#FFFFFF" stroke-miterlimit="10" width="14" height="14"/>
			<rect x="48" y="113" fill="none" stroke="#FFFFFF" stroke-miterlimit="10" width="14" height="14"/>
			<rect x="27" y="113" fill="none" stroke="#FFFFFF" stroke-miterlimit="10" width="21" height="14"/>
			<rect x="209" y="99" fill="none" stroke="#FFFFFF" stroke-miterlimit="10" width="28" height="14"/>
			<rect x="195" y="99" fill="none" stroke="#FFFFFF" stroke-miterlimit="10" width="14" height="14"/>
			<rect x="181" y="99" fill="none" stroke="#FFFFFF" stroke-miterlimit="10" width="14" height="14"/>
			<rect x="167" y="99" fill="none" stroke="#FFFFFF" stroke-miterlimit="10" width="14" height="14"/>
			<rect x="153" y="99" fill="none" stroke="#FFFFFF" stroke-miterlimit="10" width="14" height="14"/>
			<rect x="139" y="99" fill="none" stroke="#FFFFFF" stroke-miterlimit="10" width="14" height="14"/>
			<rect x="125" y="99" fill="none" stroke="#FFFFFF" stroke-miterlimit="10" width="14" height="14"/>
			<rect x="111" y="99" fill="none" stroke="#FFFFFF" stroke-miterlimit="10" width="14" height="14"/>
			<rect x="97" y="99" fill="none" stroke="#FFFFFF" stroke-miterlimit="10" width="14" height="14"/>
			<rect x="83" y="99" fill="none" stroke="#FFFFFF" stroke-miterlimit="10" width="14" height="14"/>
			<rect x="69" y="99" fill="none" stroke="#FFFFFF" stroke-miterlimit="10" width="14" height="14"/>
			<rect x="55" y="99" fill="none" stroke="#FFFFFF" stroke-miterlimit="10" width="14" height="14"/>
			<rect x="41" y="99" fill="none" stroke="#FFFFFF" stroke-miterlimit="10" width="14" height="14"/>
			<rect x="27" y="99" fill="none" stroke="#FFFFFF" stroke-miterlimit="10" width="14" height="14"/>
			<rect x="62" y="155" fill="none" stroke="#FFFFFF" stroke-miterlimit="10" width="17.5" height="14"/>
			<rect x="79.5" y="155" fill="none" stroke="#FFFFFF" stroke-miterlimit="10" width="87.5" height="14"/>
			<rect x="184.5" y="155" fill="none" stroke="#FFFFFF" stroke-miterlimit="10" width="17.5" height="14"/>
			<rect x="167" y="155" fill="none" stroke="#FFFFFF" stroke-miterlimit="10" width="17.5" height="14"/>
			<rect x="202" y="155" fill="none" stroke="#FFFFFF" stroke-miterlimit="10" width="17.5" height="14"/>
			<rect x="219.5" y="155" fill="none" stroke="#FFFFFF" stroke-miterlimit="10" width="17.5" height="14"/>
		</g>
	</g>
	<g>
		<rect x="24" y="96" fill="#231F20" width="216" height="78"/>
	</g>
	<g>
		<g>
			<path fill="#FFFFFF" d="M45.5,166c0,1.104,0.896,2,2,2H59c1.104,0,2-0.896,2-2v-8c0-1.104-0.896-2-2-2H47.5c-1.104,0-2,0.896-2,2
				V166z"/>
		</g>
		<g>
			<path fill="#FFFFFF" d="M28,166c0,1.104,0.896,2,2,2h11.5c1.104,0,2-0.896,2-2v-8c0-1.104-0.896-2-2-2H30c-1.104,0-2,0.896-2,2
				V166z"/>
		</g>
		<g>
			<path fill="#FFFFFF" d="M199.5,152c0,1.104,0.896,2,2,2H234c1.104,0,2-0.896,2-2v-8c0-1.104-0.896-2-2-2h-32.5
				c-1.104,0-2,0.896-2,2V152z"/>
		</g>
		<g>
			<path fill="#FFFFFF" d="M185.5,152c0,1.104,0.896,2,2,2h8c1.104,0,2-0.896,2-2v-8c0-1.104-0.896-2-2-2h-8c-1.104,0-2,0.896-2,2
				V152z"/>
		</g>
		<g>
			<path fill="#FFFFFF" d="M171.5,152c0,1.104,0.896,2,2,2h8c1.104,0,2-0.896,2-2v-8c0-1.104-0.896-2-2-2h-8c-1.104,0-2,0.896-2,2
				V152z"/>
		</g>
		<g>
			<path fill="#FFFFFF" d="M157.5,152c0,1.104,0.896,2,2,2h8c1.104,0,2-0.896,2-2v-8c0-1.104-0.896-2-2-2h-8c-1.104,0-2,0.896-2,2
				V152z"/>
		</g>
		<g>
			<path fill="#FFFFFF" d="M143.5,152c0,1.104,0.896,2,2,2h8c1.104,0,2-0.896,2-2v-8c0-1.104-0.896-2-2-2h-8c-1.104,0-2,0.896-2,2
				V152z"/>
		</g>
		<g>
			<path fill="#FFFFFF" d="M129.5,152c0,1.104,0.896,2,2,2h8c1.104,0,2-0.896,2-2v-8c0-1.104-0.896-2-2-2h-8c-1.104,0-2,0.896-2,2
				V152z"/>
		</g>
		<g>
			<path fill="#FFFFFF" d="M115.5,152c0,1.104,0.896,2,2,2h8c1.104,0,2-0.896,2-2v-8c0-1.104-0.896-2-2-2h-8c-1.104,0-2,0.896-2,2
				V152z"/>
		</g>
		<g>
			<path fill="#FFFFFF" d="M101.5,152c0,1.104,0.896,2,2,2h8c1.104,0,2-0.896,2-2v-8c0-1.104-0.896-2-2-2h-8c-1.104,0-2,0.896-2,2
				V152z"/>
		</g>
		<g>
			<path fill="#FFFFFF" d="M87.5,152c0,1.104,0.896,2,2,2h8c1.104,0,2-0.896,2-2v-8c0-1.104-0.896-2-2-2h-8c-1.104,0-2,0.896-2,2
				V152z"/>
		</g>
		<g>
			<path fill="#FFFFFF" d="M73.5,152c0,1.104,0.896,2,2,2h8c1.104,0,2-0.896,2-2v-8c0-1.104-0.896-2-2-2h-8c-1.104,0-2,0.896-2,2
				V152z"/>
		</g>
		<g>
			<path fill="#FFFFFF" d="M59.5,152c0,1.104,0.896,2,2,2h8c1.104,0,2-0.896,2-2v-8c0-1.104-0.896-2-2-2h-8c-1.104,0-2,0.896-2,2
				V152z"/>
		</g>
		<g>
			<path fill="#FFFFFF" d="M28,152c0,1.104,0.896,2,2,2h25.5c1.104,0,2-0.896,2-2v-8c0-1.104-0.896-2-2-2H30c-1.104,0-2,0.896-2,2
				V152z"/>
		</g>
		<g>
			<path fill="#FFFFFF" d="M206.5,138c0,1.104,0.896,2,2,2H234c1.104,0,2-0.896,2-2v-8c0-1.104-0.896-2-2-2h-25.5
				c-1.104,0-2,0.896-2,2V138z"/>
		</g>
		<g>
			<path fill="#FFFFFF" d="M192.5,138c0,1.104,0.896,2,2,2h8c1.104,0,2-0.896,2-2v-8c0-1.104-0.896-2-2-2h-8c-1.104,0-2,0.896-2,2
				V138z"/>
		</g>
		<g>
			<path fill="#FFFFFF" d="M178.5,138c0,1.104,0.896,2,2,2h8c1.104,0,2-0.896,2-2v-8c0-1.104-0.896-2-2-2h-8c-1.104,0-2,0.896-2,2
				V138z"/>
		</g>
		<g>
			<path fill="#FFFFFF" d="M164.5,138c0,1.104,0.896,2,2,2h8c1.104,0,2-0.896,2-2v-8c0-1.104-0.896-2-2-2h-8c-1.104,0-2,0.896-2,2
				V138z"/>
		</g>
		<g>
			<path fill="#FFFFFF" d="M150.5,138c0,1.104,0.896,2,2,2h8c1.104,0,2-0.896,2-2v-8c0-1.104-0.896-2-2-2h-8c-1.104,0-2,0.896-2,2
				V138z"/>
		</g>
		<g>
			<path fill="#FFFFFF" d="M136.5,138c0,1.104,0.896,2,2,2h8c1.104,0,2-0.896,2-2v-8c0-1.104-0.896-2-2-2h-8c-1.104,0-2,0.896-2,2
				V138z"/>
		</g>
		<g>
			<path fill="#FFFFFF" d="M122.5,138c0,1.104,0.896,2,2,2h8c1.104,0,2-0.896,2-2v-8c0-1.104-0.896-2-2-2h-8c-1.104,0-2,0.896-2,2
				V138z"/>
		</g>
		<g>
			<path fill="#FFFFFF" d="M108.5,138c0,1.104,0.896,2,2,2h8c1.104,0,2-0.896,2-2v-8c0-1.104-0.896-2-2-2h-8c-1.104,0-2,0.896-2,2
				V138z"/>
		</g>
		<g>
			<path fill="#FFFFFF" d="M94.5,138c0,1.104,0.896,2,2,2h8c1.104,0,2-0.896,2-2v-8c0-1.104-0.896-2-2-2h-8c-1.104,0-2,0.896-2,2
				V138z"/>
		</g>
		<g>
			<path fill="#FFFFFF" d="M80.5,138c0,1.104,0.896,2,2,2h8c1.104,0,2-0.896,2-2v-8c0-1.104-0.896-2-2-2h-8c-1.104,0-2,0.896-2,2
				V138z"/>
		</g>
		<g>
			<path fill="#FFFFFF" d="M66.5,138c0,1.104,0.896,2,2,2h8c1.104,0,2-0.896,2-2v-8c0-1.104-0.896-2-2-2h-8c-1.104,0-2,0.896-2,2
				V138z"/>
		</g>
		<g>
			<path fill="#FFFFFF" d="M52.5,138c0,1.104,0.896,2,2,2h8c1.104,0,2-0.896,2-2v-8c0-1.104-0.896-2-2-2h-8c-1.104,0-2,0.896-2,2
				V138z"/>
		</g>
		<g>
			<path fill="#FFFFFF" d="M28,138c0,1.104,0.896,2,2,2h18.5c1.104,0,2-0.896,2-2v-8c0-1.104-0.896-2-2-2H30c-1.104,0-2,0.896-2,2
				V138z"/>
		</g>
		<g>
			<path fill="#FFFFFF" d="M217,124c0,1.104,0.896,2,2,2h15c1.104,0,2-0.896,2-2v-8c0-1.104-0.896-2-2-2h-15c-1.104,0-2,0.896-2,2
				V124z"/>
		</g>
		<g>
			<path fill="#FFFFFF" d="M203,124c0,1.104,0.896,2,2,2h8c1.104,0,2-0.896,2-2v-8c0-1.104-0.896-2-2-2h-8c-1.104,0-2,0.896-2,2V124
				z"/>
		</g>
		<g>
			<path fill="#FFFFFF" d="M189,124c0,1.104,0.896,2,2,2h8c1.104,0,2-0.896,2-2v-8c0-1.104-0.896-2-2-2h-8c-1.104,0-2,0.896-2,2V124
				z"/>
		</g>
		<g>
			<path fill="#FFFFFF" d="M175,124c0,1.104,0.896,2,2,2h8c1.104,0,2-0.896,2-2v-8c0-1.104-0.896-2-2-2h-8c-1.104,0-2,0.896-2,2V124
				z"/>
		</g>
		<g>
			<path fill="#FFFFFF" d="M161,124c0,1.104,0.896,2,2,2h8c1.104,0,2-0.896,2-2v-8c0-1.104-0.896-2-2-2h-8c-1.104,0-2,0.896-2,2V124
				z"/>
		</g>
		<g>
			<path fill="#FFFFFF" d="M147,124c0,1.104,0.896,2,2,2h8c1.104,0,2-0.896,2-2v-8c0-1.104-0.896-2-2-2h-8c-1.104,0-2,0.896-2,2V124
				z"/>
		</g>
		<g>
			<path fill="#FFFFFF" d="M133,124c0,1.104,0.896,2,2,2h8c1.104,0,2-0.896,2-2v-8c0-1.104-0.896-2-2-2h-8c-1.104,0-2,0.896-2,2V124
				z"/>
		</g>
		<g>
			<path fill="#FFFFFF" d="M119,124c0,1.104,0.896,2,2,2h8c1.104,0,2-0.896,2-2v-8c0-1.104-0.896-2-2-2h-8c-1.104,0-2,0.896-2,2V124
				z"/>
		</g>
		<g>
			<path fill="#FFFFFF" d="M105,124c0,1.104,0.896,2,2,2h8c1.104,0,2-0.896,2-2v-8c0-1.104-0.896-2-2-2h-8c-1.104,0-2,0.896-2,2V124
				z"/>
		</g>
		<g>
			<path fill="#FFFFFF" d="M91,124c0,1.104,0.896,2,2,2h8c1.104,0,2-0.896,2-2v-8c0-1.104-0.896-2-2-2h-8c-1.104,0-2,0.896-2,2V124z
				"/>
		</g>
		<g>
			<path fill="#FFFFFF" d="M77,124c0,1.104,0.896,2,2,2h8c1.104,0,2-0.896,2-2v-8c0-1.104-0.896-2-2-2h-8c-1.104,0-2,0.896-2,2V124z
				"/>
		</g>
		<g>
			<path fill="#FFFFFF" d="M63,124c0,1.104,0.896,2,2,2h8c1.104,0,2-0.896,2-2v-8c0-1.104-0.896-2-2-2h-8c-1.104,0-2,0.896-2,2V124z
				"/>
		</g>
		<g>
			<path fill="#FFFFFF" d="M49,124c0,1.104,0.896,2,2,2h8c1.104,0,2-0.896,2-2v-8c0-1.104-0.896-2-2-2h-8c-1.104,0-2,0.896-2,2V124z
				"/>
		</g>
		<g>
			<path fill="#FFFFFF" d="M28,124c0,1.104,0.896,2,2,2h15c1.104,0,2-0.896,2-2v-8c0-1.104-0.896-2-2-2H30c-1.104,0-2,0.896-2,2V124
				z"/>
		</g>
		<g>
			<path fill="#FFFFFF" d="M210,110c0,1.104,0.896,2,2,2h22c1.104,0,2-0.896,2-2v-8c0-1.104-0.896-2-2-2h-22c-1.104,0-2,0.896-2,2
				V110z"/>
		</g>
		<g>
			<path fill="#FFFFFF" d="M196,110c0,1.104,0.896,2,2,2h8c1.104,0,2-0.896,2-2v-8c0-1.104-0.896-2-2-2h-8c-1.104,0-2,0.896-2,2V110
				z"/>
		</g>
		<g>
			<path fill="#FFFFFF" d="M182,110c0,1.104,0.896,2,2,2h8c1.104,0,2-0.896,2-2v-8c0-1.104-0.896-2-2-2h-8c-1.104,0-2,0.896-2,2V110
				z"/>
		</g>
		<g>
			<path fill="#FFFFFF" d="M168,110c0,1.104,0.896,2,2,2h8c1.104,0,2-0.896,2-2v-8c0-1.104-0.896-2-2-2h-8c-1.104,0-2,0.896-2,2V110
				z"/>
		</g>
		<g>
			<path fill="#FFFFFF" d="M154,110c0,1.104,0.896,2,2,2h8c1.104,0,2-0.896,2-2v-8c0-1.104-0.896-2-2-2h-8c-1.104,0-2,0.896-2,2V110
				z"/>
		</g>
		<g>
			<path fill="#FFFFFF" d="M140,110c0,1.104,0.896,2,2,2h8c1.104,0,2-0.896,2-2v-8c0-1.104-0.896-2-2-2h-8c-1.104,0-2,0.896-2,2V110
				z"/>
		</g>
		<g>
			<path fill="#FFFFFF" d="M126,110c0,1.104,0.896,2,2,2h8c1.104,0,2-0.896,2-2v-8c0-1.104-0.896-2-2-2h-8c-1.104,0-2,0.896-2,2V110
				z"/>
		</g>
		<g>
			<path fill="#FFFFFF" d="M112,110c0,1.104,0.896,2,2,2h8c1.104,0,2-0.896,2-2v-8c0-1.104-0.896-2-2-2h-8c-1.104,0-2,0.896-2,2V110
				z"/>
		</g>
		<g>
			<path fill="#FFFFFF" d="M98,110c0,1.104,0.896,2,2,2h8c1.104,0,2-0.896,2-2v-8c0-1.104-0.896-2-2-2h-8c-1.104,0-2,0.896-2,2V110z
				"/>
		</g>
		<g>
			<path fill="#FFFFFF" d="M84,110c0,1.104,0.896,2,2,2h8c1.104,0,2-0.896,2-2v-8c0-1.104-0.896-2-2-2h-8c-1.104,0-2,0.896-2,2V110z
				"/>
		</g>
		<g>
			<path fill="#FFFFFF" d="M70,110c0,1.104,0.896,2,2,2h8c1.104,0,2-0.896,2-2v-8c0-1.104-0.896-2-2-2h-8c-1.104,0-2,0.896-2,2V110z
				"/>
		</g>
		<g>
			<path fill="#FFFFFF" d="M56,110c0,1.104,0.896,2,2,2h8c1.104,0,2-0.896,2-2v-8c0-1.104-0.896-2-2-2h-8c-1.104,0-2,0.896-2,2V110z
				"/>
		</g>
		<g>
			<path fill="#FFFFFF" d="M42,110c0,1.104,0.896,2,2,2h8c1.104,0,2-0.896,2-2v-8c0-1.104-0.896-2-2-2h-8c-1.104,0-2,0.896-2,2V110z
				"/>
		</g>
		<g>
			<path fill="#FFFFFF" d="M28,110c0,1.104,0.896,2,2,2h8c1.104,0,2-0.896,2-2v-8c0-1.104-0.896-2-2-2h-8c-1.104,0-2,0.896-2,2V110z
				"/>
		</g>
		<g>
			<path fill="#FFFFFF" d="M63,166c0,1.104,0.896,2,2,2h11.5c1.104,0,2-0.896,2-2v-8c0-1.104-0.896-2-2-2H65c-1.104,0-2,0.896-2,2
				V166z"/>
		</g>
		<g>
			<path fill="#FFFFFF" d="M80.5,166c0,1.104,0.896,2,2,2H164c1.104,0,2-0.896,2-2v-8c0-1.104-0.896-2-2-2H82.5
				c-1.104,0-2,0.896-2,2V166z"/>
		</g>
		<g>
			<path fill="#FFFFFF" d="M185.5,166c0,1.104,0.896,2,2,2H199c1.104,0,2-0.896,2-2v-8c0-1.104-0.896-2-2-2h-11.5
				c-1.104,0-2,0.896-2,2V166z"/>
		</g>
		<g>
			<path fill="#FFFFFF" d="M168,166c0,1.104,0.896,2,2,2h11.5c1.104,0,2-0.896,2-2v-8c0-1.104-0.896-2-2-2H170c-1.104,0-2,0.896-2,2
				V166z"/>
		</g>
		<g>
			<path fill="#FFFFFF" d="M203,166c0,1.104,0.896,2,2,2h11.5c1.104,0,2-0.896,2-2v-8c0-1.104-0.896-2-2-2H205c-1.104,0-2,0.896-2,2
				V166z"/>
		</g>
		<g>
			<path fill="#FFFFFF" d="M220.5,166c0,1.104,0.896,2,2,2H234c1.104,0,2-0.896,2-2v-8c0-1.104-0.896-2-2-2h-11.5
				c-1.104,0-2,0.896-2,2V166z"/>
		</g>
	</g>
</g>
</svg>
