<?xml version="1.0" encoding="utf-8"?>
<!-- Generator: Adobe Illustrator 16.0.4, SVG Export Plug-In . SVG Version: 6.00 Build 0)  -->
<!DOCTYPE svg PUBLIC "-//W3C//DTD SVG 1.1//EN" "http://www.w3.org/Graphics/SVG/1.1/DTD/svg11.dtd">
<svg version="1.1" id="Layer_1" xmlns="http://www.w3.org/2000/svg" xmlns:xlink="http://www.w3.org/1999/xlink" x="0px" y="0px"
	 width="72px" height="72px" viewBox="0.5 72.5 72 72" enable-background="new 0.5 72.5 72 72" xml:space="preserve">
<path d="M63.502,108.29c0.086-4.872,3.068-9.007,7.272-10.812c-1.584-4.929-4.196-9.396-7.592-13.144
	c-3.788,2.83-9.06,3.264-13.363,0.677c-4.177-2.51-6.266-7.159-5.729-11.702C41.643,72.783,39.105,72.5,36.5,72.5
	c-2.604,0-5.141,0.283-7.587,0.809c0.557,4.695-1.703,9.478-6.095,11.912c-4.261,2.362-9.331,1.847-12.997-0.89
	c-3.396,3.746-6.008,8.212-7.592,13.14C6.504,99.307,9.5,103.552,9.5,108.5s-2.996,9.194-7.272,11.029
	c1.584,4.926,4.194,9.39,7.587,13.135c3.728-2.783,8.9-3.255,13.185-0.781c4.285,2.474,6.463,7.19,5.916,11.81
	c2.446,0.525,4.981,0.808,7.584,0.808s5.139-0.282,7.585-0.808c-0.548-4.619,1.63-9.336,5.915-11.81
	c4.284-2.474,9.458-2.002,13.185,0.78c3.394-3.745,6.005-8.211,7.589-13.137C66.427,117.661,63.414,113.312,63.502,108.29z
	 M36.438,120.5c-6.627-0.034-11.972-5.435-11.938-12.062c0.035-6.627,5.435-11.972,12.062-11.938
	c6.628,0.035,11.972,5.435,11.938,12.062S43.065,120.534,36.438,120.5z"/>
</svg>
