<?xml version="1.0" encoding="utf-8"?>
<!-- Generated by IcoMoon.io -->
<!DOCTYPE svg PUBLIC "-//W3C//DTD SVG 1.1//EN" "http://www.w3.org/Graphics/SVG/1.1/DTD/svg11.dtd">
<svg version="1.1" xmlns="http://www.w3.org/2000/svg" xmlns:xlink="http://www.w3.org/1999/xlink" width="72" height="72" viewBox="0 0 72 72">
<path d="M36 72c-19.856 0-36-16.144-36-36s16.144-36 36-36c19.856 0 36 16.144 36 36s-16.144 36-36 36v0zM66.361 40.922c-1.055-0.337-9.52-2.855-19.153-1.308 4.022 11.053 5.653 20.053 5.977 21.923 6.891-4.669 11.813-12.052 13.177-20.616v0zM48.009 64.35c-0.464-2.7-2.236-12.094-6.553-23.316-0.070 0.028-0.141 0.042-0.197 0.070-17.353 6.047-23.583 18.070-24.131 19.195 5.217 4.064 11.77 6.497 18.872 6.497 4.261 0 8.325-0.872 12.009-2.447v0zM13.148 56.602c0.703-1.195 9.141-15.159 24.989-20.292 0.394-0.127 0.802-0.253 1.209-0.366-0.773-1.744-1.617-3.502-2.489-5.217-15.342 4.598-30.248 4.402-31.598 4.387-0.014 0.309-0.014 0.619-0.014 0.942 0 7.889 2.995 15.103 7.903 20.545v0zM5.906 29.742c1.378 0.014 14.048 0.070 28.434-3.741-5.091-9.056-10.589-16.678-11.405-17.789-8.606 4.064-15.047 11.995-17.030 21.53v0zM28.8 6.145c0.844 1.139 6.441 8.747 11.475 18 10.941-4.092 15.567-10.322 16.116-11.109-5.428-4.823-12.572-7.748-20.391-7.748-2.475 0.014-4.894 0.309-7.2 0.858v0zM59.808 16.608c-0.647 0.872-5.808 7.481-17.17 12.122 0.717 1.463 1.406 2.953 2.039 4.458 0.225 0.534 0.45 1.055 0.661 1.589 10.237-1.28 20.405 0.773 21.417 0.984-0.070-7.256-2.672-13.922-6.947-19.153v0z"></path>
</svg>
