<?xml version="1.0" encoding="utf-8"?>
<!-- Generator: Adobe Illustrator 16.0.4, SVG Export Plug-In . SVG Version: 6.00 Build 0)  -->
<!DOCTYPE svg PUBLIC "-//W3C//DTD SVG 1.1//EN" "http://www.w3.org/Graphics/SVG/1.1/DTD/svg11.dtd">
<svg version="1.1" id="Layer_1" xmlns="http://www.w3.org/2000/svg" xmlns:xlink="http://www.w3.org/1999/xlink" x="0px" y="0px"
	 width="72px" height="72px" viewBox="0.5 72.5 72 72" enable-background="new 0.5 72.5 72 72" xml:space="preserve">
<path d="M48.944,113.621c-2.81,0.001-5.087,3.157-5.086,7.041c0,3.889,2.278,7.046,5.088,7.045c2.811,0,5.086-3.157,5.086-7.046
	C54.028,116.777,51.755,113.621,48.944,113.621z M66.652,95.294c0.583-1.429,0.605-9.544-2.486-17.319c0,0-7.087,0.78-17.808,8.143
	c-2.251-0.627-6.058-0.933-9.857-0.932c-3.807,0-7.61,0.307-9.861,0.934c-10.726-7.358-17.813-8.137-17.813-8.137
	c-3.086,7.775-3.054,15.891-2.479,17.319C2.717,99.246,0.5,103.985,0.5,110.45c0.003,28.118,23.337,28.565,29.222,28.564
	c1.338,0,3.984,0.007,6.786,0.007c2.797,0,5.447-0.009,6.778-0.009c5.893-0.001,29.218-0.454,29.214-28.572
	C72.499,103.976,70.285,99.238,66.652,95.294L66.652,95.294z M36.613,135.56h-0.219c-14.757,0.002-26.252-1.755-26.254-16.1
	c0-3.439,1.211-6.626,4.095-9.271c4.802-4.41,12.933-2.078,22.156-2.079c0.04,0,0.078,0,0.113,0c0.038,0,0.07,0,0.105,0
	c9.223-0.001,17.358-2.335,22.164,2.073c2.877,2.646,4.089,5.832,4.089,9.271C62.864,133.799,51.373,135.558,36.613,135.56
	L36.613,135.56z M24.061,113.625c-2.81,0-5.086,3.156-5.085,7.04c0,3.889,2.278,7.046,5.087,7.046
	c2.813-0.001,5.09-3.158,5.09-7.047C29.152,116.78,26.874,113.624,24.061,113.625L24.061,113.625z"/>
</svg>
