<?xml version="1.0" encoding="utf-8"?>
<!-- Generator: Adobe Illustrator 16.0.4, SVG Export Plug-In . SVG Version: 6.00 Build 0)  -->
<!DOCTYPE svg PUBLIC "-//W3C//DTD SVG 1.1//EN" "http://www.w3.org/Graphics/SVG/1.1/DTD/svg11.dtd">
<svg version="1.1" id="Layer_1" xmlns="http://www.w3.org/2000/svg" xmlns:xlink="http://www.w3.org/1999/xlink" x="0px" y="0px"
	 width="72px" height="72px" viewBox="0 0 72 72" enable-background="new 0 0 72 72" xml:space="preserve">
<path d="M65.25,0L6.75,0C3.038,0,0,3.039,0,6.75v58.5c0,3.712,3.038,6.751,6.75,6.751L65.25,72c3.712,0.001,6.75-3.038,6.75-6.75
	V6.75C72,3.039,68.962,0,65.25,0z M49.5,11.25c0-1.237,1.012-2.25,2.249-2.25h9.001C61.988,9,63,10.014,63,11.25v9
	c0,1.237-1.012,2.249-2.25,2.25h-9.001c-1.237,0-2.249-1.013-2.249-2.25V11.25z M36,22.5c7.454,0,13.5,6.046,13.5,13.5
	s-6.047,13.5-13.5,13.5c-7.453,0-13.5-6.047-13.5-13.5C22.5,28.547,28.546,22.5,36,22.5z M63,60.75L63,60.75
	c0,1.238-1.012,2.25-2.25,2.25h-49.5C10.013,63.001,9,61.988,9,60.75l0,0V31.5l4.95,0c-0.295,1.448-0.45,2.953-0.45,4.5
	c0,12.431,10.069,22.5,22.5,22.5c12.431,0,22.499-10.068,22.5-22.5c0-1.547-0.154-3.052-0.451-4.5L63,31.501V60.75z"/>
</svg>
