<?xml version="1.0" encoding="utf-8"?>
<!-- Generator: Adobe Illustrator 16.0.4, SVG Export Plug-In . SVG Version: 6.00 Build 0)  -->
<!DOCTYPE svg PUBLIC "-//W3C//DTD SVG 1.1//EN" "http://www.w3.org/Graphics/SVG/1.1/DTD/svg11.dtd">
<svg version="1.1" id="Layer_1" xmlns="http://www.w3.org/2000/svg" xmlns:xlink="http://www.w3.org/1999/xlink" x="0px" y="0px"
	 width="72px" height="72px" viewBox="-107.5 180.5 72 72" enable-background="new -107.5 180.5 72 72" xml:space="preserve">
<path id="nnid" d="M-89.439,212.093c0-0.929,0.805-1.704,1.761-1.704h4.446c0.388,0,0.687-0.177,1.044-0.418
	c2.863-1.939,6.326-3.072,10.085-3.072c9.612,0,17.372,7.431,17.372,16.652v15.247c0,0.927-0.808,1.702-1.764,1.702h-5.672
	c-0.984,0-1.759-0.775-1.759-1.702v-15.247c0-4.33-3.671-7.848-8.178-7.848c-4.534,0-8.176,3.518-8.176,7.848v15.247
	c0,0.927-0.803,1.702-1.79,1.702h-5.669c-0.984,0-1.761-0.775-1.761-1.702v-26.705H-89.439z M-83.468,199.721
	c3.462-1.555,7.343-2.39,11.43-2.39c9.221,0,17.366,4.386,22.291,11.101c0.391,0.566,1.164,0.688,1.73,0.271
	c0.565-0.39,0.687-1.192,0.269-1.759c-5.369-7.342-14.263-12.119-24.29-12.119c-4.418,0-8.686,0.924-12.474,2.628
	c-0.627,0.269-0.896,1.011-0.657,1.638C-84.812,199.721-84.064,200.018-83.468,199.721 M-53.416,212.173
	c-0.356,0-0.743-0.181-0.983-0.478c-4.029-5.463-10.651-8.744-17.666-8.744c-3.133,0-6.146,0.626-8.981,1.852
	c-0.627,0.27-1.344,0-1.641-0.66c-0.269-0.625,0-1.341,0.655-1.638c3.135-1.374,6.505-2.062,9.968-2.062
	c7.79,0,15.129,3.639,19.635,9.761c0.387,0.565,0.271,1.308-0.268,1.728C-52.905,212.084-53.146,212.173-53.416,212.173"/>
</svg>
