<?xml version="1.0" encoding="utf-8"?>
<!-- Generated by IcoMoon.io -->
<!DOCTYPE svg PUBLIC "-//W3C//DTD SVG 1.1//EN" "http://www.w3.org/Graphics/SVG/1.1/DTD/svg11.dtd">
<svg version="1.1" xmlns="http://www.w3.org/2000/svg" xmlns:xlink="http://www.w3.org/1999/xlink" width="72" height="72" viewBox="0 0 72 72">
<path d="M9.583 52.8c-5.287 0-9.583 4.313-9.583 9.568 0 5.284 4.296 9.549 9.583 9.549 5.306 0 9.597-4.264 9.597-9.549-0-5.255-4.291-9.568-9.597-9.568zM0.011 24.464v13.799c8.985 0 17.435 3.514 23.798 9.88 6.355 6.35 9.864 14.838 9.864 23.857h13.86c-0-26.214-21.325-47.536-47.522-47.536zM0.027 0v13.806c32.047 0 58.131 26.109 58.131 58.194h13.841c0-39.689-32.291-72-71.973-72z"></path>
</svg>
