<svg xmlns="http://www.w3.org/2000/svg" xmlns:xlink="http://www.w3.org/1999/xlink"><symbol viewBox="0.5 72.5 72 72" id="cog"><path d="M63.502 108.29c.086-4.872 3.068-9.007 7.272-10.812a35.964 35.964 0 0 0-7.592-13.144c-3.788 2.83-9.06 3.264-13.363.677-4.178-2.51-6.267-7.158-5.73-11.7a36.048 36.048 0 0 0-15.177 0c.557 4.694-1.703 9.477-6.095 11.91-4.26 2.363-9.33 1.848-12.997-.89a35.94 35.94 0 0 0-7.59 13.14c4.274 1.837 7.27 6.082 7.27 11.03s-2.996 9.194-7.272 11.03a35.958 35.958 0 0 0 7.587 13.134c3.728-2.783 8.9-3.255 13.185-.78 4.285 2.473 6.463 7.19 5.916 11.81a36.03 36.03 0 0 0 15.17 0c-.55-4.62 1.63-9.336 5.914-11.81s9.458-2.002 13.185.78a35.956 35.956 0 0 0 7.59-13.137c-4.348-1.865-7.36-6.214-7.273-11.236zM36.438 120.5c-6.627-.034-11.972-5.435-11.938-12.062.035-6.627 5.435-11.972 12.062-11.938 6.628.035 11.972 5.435 11.938 12.062s-5.435 11.972-12.062 11.938z"/></symbol><symbol viewBox="0 0 72 72" id="contact--dribbble"><path d="M36 72C16.144 72 0 55.856 0 36S16.144 0 36 0s36 16.144 36 36-16.144 36-36 36zm30.36-31.078c-1.054-.337-9.52-2.855-19.152-1.308 4.022 11.053 5.653 20.053 5.977 21.923 6.89-4.67 11.813-12.052 13.177-20.616zM48.01 64.35c-.465-2.7-2.237-12.094-6.554-23.316-.07.028-.14.042-.197.07C23.905 47.15 17.675 59.174 17.127 60.3c5.217 4.063 11.77 6.496 18.872 6.496 4.26 0 8.325-.872 12.01-2.447zm-34.862-7.748c.703-1.195 9.14-15.16 24.99-20.292.393-.127.8-.253 1.208-.366a109.38 109.38 0 0 0-2.49-5.217C21.517 35.325 6.61 35.13 5.26 35.114c-.015.31-.015.62-.015.942 0 7.89 2.995 15.103 7.903 20.545zm-7.242-26.86c1.378.014 14.048.07 28.434-3.74-5.09-9.057-10.59-16.68-11.405-17.79-8.606 4.064-15.047 11.995-17.03 21.53zM28.8 6.145c.844 1.14 6.44 8.747 11.475 18 10.94-4.092 15.567-10.322 16.116-11.11A30.6 30.6 0 0 0 36 5.29c-2.475.014-4.894.31-7.2.858zm31.008 10.463c-.647.872-5.808 7.48-17.17 12.122a85.363 85.363 0 0 1 2.04 4.458c.224.534.45 1.055.66 1.59 10.237-1.28 20.405.772 21.417.983-.07-7.255-2.672-13.92-6.947-19.152z"/></symbol><symbol viewBox="0 0 72 72" id="contact--facebook"><path d="M42.75 13.5H54V0H42.75C34.065 0 27 7.065 27 15.75v6.75h-9V36h9v36h13.5V36h11.25L54 22.5H40.5v-6.75c0-1.22 1.03-2.25 2.25-2.25z"/></symbol><symbol viewBox="0.5 72.5 72 72" id="contact--github"><path d="M48.944 113.62c-2.81.002-5.087 3.158-5.086 7.042 0 3.89 2.278 7.046 5.088 7.045 2.81 0 5.086-3.157 5.086-7.046-.004-3.883-2.277-7.04-5.088-7.04zm17.708-18.326c.583-1.43.605-9.544-2.486-17.32 0 0-7.087.78-17.808 8.144-2.25-.627-6.058-.933-9.857-.932-3.806 0-7.61.307-9.86.934-10.726-7.358-17.813-8.137-17.813-8.137-3.086 7.775-3.054 15.89-2.48 17.32C2.718 99.245.5 103.984.5 110.45c.003 28.118 23.337 28.565 29.222 28.564 1.338 0 3.984.007 6.786.007 2.797 0 5.447-.008 6.778-.008 5.893 0 29.218-.454 29.214-28.572 0-6.464-2.215-11.202-5.848-15.146zm-30.04 40.266h-.218c-14.757.002-26.252-1.755-26.254-16.1 0-3.44 1.21-6.626 4.095-9.27 4.802-4.41 12.933-2.08 22.156-2.08h.219c9.222 0 17.357-2.335 22.163 2.073 2.877 2.646 4.09 5.832 4.09 9.27 0 14.346-11.49 16.105-26.25 16.107zm-12.55-21.935c-2.81 0-5.087 3.156-5.086 7.04 0 3.89 2.278 7.046 5.087 7.046 2.813 0 5.09-3.157 5.09-7.046 0-3.884-2.28-7.04-5.092-7.04z"/></symbol><symbol viewBox="0 0 72 72" id="contact--instagram"><path d="M65.25 0H6.75C3.038 0 0 3.04 0 6.75v58.5C0 68.962 3.038 72 6.75 72h58.5c3.712 0 6.75-3.038 6.75-6.75V6.75C72 3.04 68.962 0 65.25 0zM49.5 11.25A2.256 2.256 0 0 1 51.75 9h9A2.257 2.257 0 0 1 63 11.25v9a2.257 2.257 0 0 1-2.25 2.25h-9a2.256 2.256 0 0 1-2.25-2.25v-9zM36 22.5c7.454 0 13.5 6.046 13.5 13.5S43.453 49.5 36 49.5 22.5 43.453 22.5 36 28.546 22.5 36 22.5zm27 38.25A2.256 2.256 0 0 1 60.75 63h-49.5A2.256 2.256 0 0 1 9 60.75V31.5h4.95a22.525 22.525 0 0 0-.45 4.5c0 12.43 10.07 22.5 22.5 22.5S58.5 48.432 58.5 36a22.38 22.38 0 0 0-.45-4.5H63v29.25z"/></symbol><symbol viewBox="0.5 72.5 72 72" id="contact--mail"><path d="M72.5 93.5v36H.5v-36l36 17.917 36-17.917zm-36 12l36-18H.5l36 18z"/></symbol><symbol viewBox="-107.5 180.5 72 72" id="contact--nnid"><path d="M-89.44 212.093c0-.93.806-1.704 1.762-1.704h4.446c.388 0 .687-.178 1.044-.42a17.9 17.9 0 0 1 10.085-3.07c9.612 0 17.372 7.43 17.372 16.65V238.8c0 .927-.81 1.702-1.765 1.702h-5.672c-.984 0-1.76-.775-1.76-1.702V223.55c0-4.33-3.67-7.847-8.177-7.847-4.534 0-8.176 3.518-8.176 7.848V238.8c0 .927-.803 1.702-1.79 1.702h-5.67c-.983 0-1.76-.775-1.76-1.702v-26.705h.06zm5.972-12.372c3.462-1.554 7.343-2.39 11.43-2.39 9.22 0 17.366 4.387 22.29 11.102.392.566 1.165.688 1.73.27.566-.39.688-1.19.27-1.758-5.37-7.342-14.263-12.12-24.29-12.12-4.418 0-8.686.925-12.474 2.63-.627.268-.896 1.01-.657 1.637.358.63 1.106.928 1.702.63m30.052 12.453c-.356 0-.743-.18-.983-.478-4.028-5.463-10.65-8.744-17.665-8.744-3.133 0-6.146.627-8.98 1.853-.628.27-1.345 0-1.642-.66-.27-.625 0-1.34.655-1.638 3.135-1.374 6.505-2.062 9.968-2.062 7.79 0 15.13 3.64 19.635 9.76.388.566.272 1.31-.267 1.73a1.2 1.2 0 0 1-.72.24"/></symbol><symbol viewBox="0 0 72 72" id="contact--rss"><path d="M9.583 52.8C4.296 52.8 0 57.113 0 62.368c0 5.284 4.296 9.55 9.583 9.55 5.306 0 9.597-4.265 9.597-9.55 0-5.255-4.29-9.568-9.597-9.568zM.01 24.464v13.8c8.986 0 17.436 3.513 23.8 9.88 6.354 6.35 9.863 14.837 9.863 23.856h13.86c0-26.214-21.325-47.536-47.522-47.536zM.028 0v13.806c32.047 0 58.13 26.11 58.13 58.194H72C72 32.31 39.707 0 .025 0z"/></symbol><symbol viewBox="0 0 72 72" id="contact--twitter"><path d="M72 15.92a29.12 29.12 0 0 1-8.48 2.32 14.854 14.854 0 0 0 6.497-8.17 29.7 29.7 0 0 1-9.38 3.585A14.772 14.772 0 0 0 49.85 9c-8.155 0-14.765 6.61-14.765 14.766 0 1.153.127 2.278.38 3.36-12.277-.618-23.16-6.496-30.445-15.44a14.766 14.766 0 0 0-1.997 7.425A14.75 14.75 0 0 0 9.59 31.403a14.782 14.782 0 0 1-6.694-1.842v.183c0 7.158 5.09 13.134 11.855 14.484-1.236.337-2.544.52-3.894.52-.956 0-1.87-.098-2.784-.267 1.884 5.864 7.34 10.14 13.795 10.266a29.625 29.625 0 0 1-18.352 6.328c-1.195 0-2.362-.07-3.53-.21A41.78 41.78 0 0 0 22.64 67.5c27.17 0 42.033-22.514 42.033-42.033 0-.647-.014-1.28-.042-1.912A29.735 29.735 0 0 0 72 15.92z"/></symbol><symbol viewBox="0 0 72 72" id="menu"><path d="M72 30H0V18h72v12zm0 12H0v12h72V42z"/></symbol></svg>